<?xml version="1.0" standalone="no"?>
<!DOCTYPE svg PUBLIC "-//W3C//DTD SVG 20010904//EN"
 "http://www.w3.org/TR/2001/REC-SVG-20010904/DTD/svg10.dtd">
<svg version="1.0" xmlns="http://www.w3.org/2000/svg"
 width="646.000000pt" height="646.000000pt" viewBox="0 0 646.000000 646.000000"
 preserveAspectRatio="xMidYMid meet">

<g transform="translate(0.000000,646.000000) scale(0.100000,-0.100000)"
fill="#000000" stroke="none">
<path d="M3086 5775 c-315 -52 -564 -181 -786 -412 -253 -261 -380 -577 -380
-948 0 -230 38 -400 135 -600 72 -149 157 -265 284 -388 197 -189 407 -301
674 -359 146 -32 408 -32 554 0 267 58 477 170 674 359 127 123 212 239 284
388 97 200 135 370 135 600 0 230 -38 400 -135 600 -72 149 -157 265 -284 388
-196 188 -409 302 -669 357 -129 28 -363 35 -486 15z"/>
<path d="M2205 3042 c-262 -128 -469 -275 -681 -487 -443 -442 -697 -1012
-730 -1638 l-7 -127 2503 0 2503 0 -7 127 c-22 409 -143 809 -353 1161 -195
328 -527 660 -854 855 -53 31 -149 82 -213 113 l-116 56 -78 -50 c-211 -135
-427 -215 -672 -248 -380 -50 -762 36 -1091 247 -42 27 -78 49 -80 49 -2 0
-58 -26 -124 -58z"/>
</g>
</svg>
